<svg xmlns="http://www.w3.org/2000/svg" viewBox="0 0 512 512">
  <defs>
    <linearGradient id="g" x1="0" y1="0" x2="1" y2="1">
      <stop stop-color="#2aa78d"/>
      <stop offset="1" stop-color="#125b4c"/>
    </linearGradient>
  </defs>
  <rect width="512" height="512" fill="url(#g)"/>
  <path d="M156 166c0-42 36-70 96-70 45 0 82 14 111 38l-36 46c-23-18-48-27-74-27-25 0-39 7-39 21 0 15 17 21 59 31 70 17 101 42 101 100 0 67-53 111-132 111-54 0-101-18-137-52l40-47c27 25 60 39 96 39 30 0 47-10 47-28 0-17-17-24-59-34-69-16-103-42-103-108z" fill="white"/>
</svg>

